<?xml version="1.0" encoding="UTF-8" standalone="no"?>
<!DOCTYPE svg PUBLIC "-//W3C//DTD SVG 1.1//EN"
 "http://www.w3.org/Graphics/SVG/1.1/DTD/svg11.dtd">
<!-- Generated by graphviz version 2.40.1 (20161225.0304)
 -->
<!-- Title: dependencies Pages: 1 -->
<svg width="1368pt" height="284pt"
 viewBox="0.00 0.00 1368.00 284.00" xmlns="http://www.w3.org/2000/svg" xmlns:xlink="http://www.w3.org/1999/xlink">
<g id="graph0" class="graph" transform="scale(1 1) rotate(0) translate(4 280)">
<title>dependencies</title>
<polygon fill="#ffffff" stroke="transparent" points="-4,4 -4,-280 1364,-280 1364,4 -4,4"/>
<text text-anchor="start" x="659.0091" y="-42.4" font-family="sans-serif" font-weight="bold" font-size="14.00" fill="#000000">Legend</text>
<polygon fill="#ffffb3" stroke="transparent" points="446,-10 446,-30 466,-30 466,-10 446,-10"/>
<text text-anchor="start" x="469.629" y="-15.4" font-family="sans-serif" font-size="14.00" fill="#000000"> &#160;Declarations</text>
<polygon fill="#8dd3c7" stroke="transparent" points="559,-10 559,-30 579,-30 579,-10 559,-10"/>
<text text-anchor="start" x="582.7251" y="-15.4" font-family="sans-serif" font-size="14.00" fill="#000000"> &#160;Module</text>
<polygon fill="#80b1d3" stroke="transparent" points="645,-10 645,-30 665,-30 665,-10 645,-10"/>
<text text-anchor="start" x="668.7812" y="-15.4" font-family="sans-serif" font-size="14.00" fill="#000000"> &#160;Bootstrap</text>
<polygon fill="#fdb462" stroke="transparent" points="742,-10 742,-30 762,-30 762,-10 742,-10"/>
<text text-anchor="start" x="765.6732" y="-15.4" font-family="sans-serif" font-size="14.00" fill="#000000"> &#160;Providers</text>
<polygon fill="#fb8072" stroke="transparent" points="838,-10 838,-30 858,-30 858,-10 838,-10"/>
<text text-anchor="start" x="861.7258" y="-15.4" font-family="sans-serif" font-size="14.00" fill="#000000"> &#160;Exports</text>
<g id="clust1" class="cluster">
<title>cluster_AppModule</title>
<polygon fill="none" stroke="#000000" stroke-dasharray="1,5" points="8,-70 8,-268 1352,-268 1352,-70 8,-70"/>
</g>
<g id="clust2" class="cluster">
<title>cluster_AppModule_declarations</title>
<polygon fill="none" stroke="#000000" points="542,-78 542,-130 1344,-130 1344,-78 542,-78"/>
</g>
<g id="clust9" class="cluster">
<title>cluster_AppModule_imports</title>
<polygon fill="none" stroke="#000000" points="390,-78 390,-130 534,-130 534,-78 390,-78"/>
</g>
<g id="clust11" class="cluster">
<title>cluster_AppModule_bootstrap</title>
<polygon fill="none" stroke="#000000" points="691,-208 691,-260 815,-260 815,-208 691,-208"/>
</g>
<g id="clust12" class="cluster">
<title>cluster_AppModule_providers</title>
<polygon fill="none" stroke="#000000" points="16,-78 16,-130 382,-130 382,-78 16,-78"/>
</g>
<!-- AccountComponent -->
<g id="node1" class="node">
<title>AccountComponent</title>
<polygon fill="#ffffb3" stroke="#000000" points="1336.259,-122 1207.741,-122 1207.741,-86 1336.259,-86 1336.259,-122"/>
<text text-anchor="middle" x="1272" y="-99.8" font-family="Times,serif" font-size="14.00" fill="#000000">AccountComponent</text>
</g>
<!-- AppModule -->
<g id="node7" class="node">
<title>AppModule</title>
<polygon fill="#8dd3c7" stroke="#000000" points="794.6571,-187 791.6571,-191 770.6571,-191 767.6571,-187 711.3429,-187 711.3429,-151 794.6571,-151 794.6571,-187"/>
<text text-anchor="middle" x="753" y="-164.8" font-family="Times,serif" font-size="14.00" fill="#000000">AppModule</text>
</g>
<!-- AccountComponent&#45;&gt;AppModule -->
<g id="edge1" class="edge">
<title>AccountComponent&#45;&gt;AppModule</title>
<path fill="none" stroke="#000000" d="M1272,-122.0109C1272,-144.4852 1272,-180 1272,-180 1272,-180 805.0323,-180 805.0323,-180"/>
<polygon fill="#000000" stroke="#000000" points="805.0324,-176.5001 795.0323,-180 805.0323,-183.5001 805.0324,-176.5001"/>
</g>
<!-- AppComponent -->
<g id="node2" class="node">
<title>AppComponent</title>
<polygon fill="#ffffb3" stroke="#000000" points="1189.9399,-122 1084.0601,-122 1084.0601,-86 1189.9399,-86 1189.9399,-122"/>
<text text-anchor="middle" x="1137" y="-99.8" font-family="Times,serif" font-size="14.00" fill="#000000">AppComponent</text>
</g>
<!-- AppComponent&#45;&gt;AppModule -->
<g id="edge2" class="edge">
<title>AppComponent&#45;&gt;AppModule</title>
<path fill="none" stroke="#000000" d="M1137,-122.1289C1137,-142.5724 1137,-173 1137,-173 1137,-173 804.8257,-173 804.8257,-173"/>
<polygon fill="#000000" stroke="#000000" points="804.8258,-169.5001 794.8257,-173 804.8257,-176.5001 804.8258,-169.5001"/>
</g>
<!-- EditComponent -->
<g id="node3" class="node">
<title>EditComponent</title>
<polygon fill="#ffffb3" stroke="#000000" points="1066.1667,-122 961.8333,-122 961.8333,-86 1066.1667,-86 1066.1667,-122"/>
<text text-anchor="middle" x="1014" y="-99.8" font-family="Times,serif" font-size="14.00" fill="#000000">EditComponent</text>
</g>
<!-- EditComponent&#45;&gt;AppModule -->
<g id="edge3" class="edge">
<title>EditComponent&#45;&gt;AppModule</title>
<path fill="none" stroke="#000000" d="M1014,-122.2667C1014,-140.5552 1014,-166 1014,-166 1014,-166 804.9342,-166 804.9342,-166"/>
<polygon fill="#000000" stroke="#000000" points="804.9342,-162.5001 794.9342,-166 804.9341,-169.5001 804.9342,-162.5001"/>
</g>
<!-- HomeComponent -->
<g id="node4" class="node">
<title>HomeComponent</title>
<polygon fill="#ffffb3" stroke="#000000" points="943.5451,-122 828.4549,-122 828.4549,-86 943.5451,-86 943.5451,-122"/>
<text text-anchor="middle" x="886" y="-99.8" font-family="Times,serif" font-size="14.00" fill="#000000">HomeComponent</text>
</g>
<!-- HomeComponent&#45;&gt;AppModule -->
<g id="edge4" class="edge">
<title>HomeComponent&#45;&gt;AppModule</title>
<path fill="none" stroke="#000000" d="M886,-122.0091C886,-138.0494 886,-159 886,-159 886,-159 804.7171,-159 804.7171,-159"/>
<polygon fill="#000000" stroke="#000000" points="804.7172,-155.5001 794.7171,-159 804.7171,-162.5001 804.7172,-155.5001"/>
</g>
<!-- LoginComponent -->
<g id="node5" class="node">
<title>LoginComponent</title>
<polygon fill="#ffffb3" stroke="#000000" points="810.2758,-122 695.7242,-122 695.7242,-86 810.2758,-86 810.2758,-122"/>
<text text-anchor="middle" x="753" y="-99.8" font-family="Times,serif" font-size="14.00" fill="#000000">LoginComponent</text>
</g>
<!-- LoginComponent&#45;&gt;AppModule -->
<g id="edge5" class="edge">
<title>LoginComponent&#45;&gt;AppModule</title>
<path fill="none" stroke="#000000" d="M753,-122.1061C753,-122.1061 753,-140.991 753,-140.991"/>
<polygon fill="#000000" stroke="#000000" points="749.5001,-140.9909 753,-150.991 756.5001,-140.991 749.5001,-140.9909"/>
</g>
<!-- RegisterComponent -->
<g id="node6" class="node">
<title>RegisterComponent</title>
<polygon fill="#ffffb3" stroke="#000000" points="677.9846,-122 550.0154,-122 550.0154,-86 677.9846,-86 677.9846,-122"/>
<text text-anchor="middle" x="614" y="-99.8" font-family="Times,serif" font-size="14.00" fill="#000000">RegisterComponent</text>
</g>
<!-- RegisterComponent&#45;&gt;AppModule -->
<g id="edge6" class="edge">
<title>RegisterComponent&#45;&gt;AppModule</title>
<path fill="none" stroke="#000000" d="M614,-122.0091C614,-138.0494 614,-159 614,-159 614,-159 701.2954,-159 701.2954,-159"/>
<polygon fill="#000000" stroke="#000000" points="701.2955,-162.5001 711.2954,-159 701.2954,-155.5001 701.2955,-162.5001"/>
</g>
<!-- AppComponent  -->
<g id="node9" class="node">
<title>AppComponent </title>
<polygon fill="#80b1d3" stroke="#000000" points="807.439,-252 698.561,-252 698.561,-216 807.439,-216 807.439,-252"/>
<text text-anchor="middle" x="753" y="-229.8" font-family="Times,serif" font-size="14.00" fill="#000000">AppComponent </text>
</g>
<!-- AppModule&#45;&gt;AppComponent  -->
<g id="edge8" class="edge">
<title>AppModule&#45;&gt;AppComponent </title>
<path fill="none" stroke="#000000" stroke-dasharray="1,5" d="M753,-187.1061C753,-187.1061 753,-205.991 753,-205.991"/>
<polygon fill="#000000" stroke="#000000" points="749.5001,-205.9909 753,-215.991 756.5001,-205.991 749.5001,-205.9909"/>
</g>
<!-- AppRoutingModule -->
<g id="node8" class="node">
<title>AppRoutingModule</title>
<polygon fill="#8dd3c7" stroke="#000000" points="526.2744,-122 523.2744,-126 502.2744,-126 499.2744,-122 397.7256,-122 397.7256,-86 526.2744,-86 526.2744,-122"/>
<text text-anchor="middle" x="462" y="-99.8" font-family="Times,serif" font-size="14.00" fill="#000000">AppRoutingModule</text>
</g>
<!-- AppRoutingModule&#45;&gt;AppModule -->
<g id="edge7" class="edge">
<title>AppRoutingModule&#45;&gt;AppModule</title>
<path fill="none" stroke="#000000" d="M462,-122.2667C462,-140.5552 462,-166 462,-166 462,-166 701.3068,-166 701.3068,-166"/>
<polygon fill="#000000" stroke="#000000" points="701.3068,-169.5001 711.3068,-166 701.3068,-162.5001 701.3068,-169.5001"/>
</g>
<!-- AuthService -->
<g id="node10" class="node">
<title>AuthService</title>
<ellipse fill="#fdb462" stroke="#000000" cx="315" cy="-104" rx="59.1083" ry="18"/>
<text text-anchor="middle" x="315" y="-99.8" font-family="Times,serif" font-size="14.00" fill="#000000">AuthService</text>
</g>
<!-- AuthService&#45;&gt;AppModule -->
<g id="edge9" class="edge">
<title>AuthService&#45;&gt;AppModule</title>
<path fill="none" stroke="#000000" d="M315,-122.1289C315,-142.5724 315,-173 315,-173 315,-173 701.0027,-173 701.0027,-173"/>
<polygon fill="#000000" stroke="#000000" points="701.0028,-176.5001 711.0027,-173 701.0027,-169.5001 701.0028,-176.5001"/>
</g>
<!-- TokenInterceptorService -->
<g id="node11" class="node">
<title>TokenInterceptorService</title>
<ellipse fill="#fdb462" stroke="#000000" cx="131" cy="-104" rx="107.0415" ry="18"/>
<text text-anchor="middle" x="131" y="-99.8" font-family="Times,serif" font-size="14.00" fill="#000000">TokenInterceptorService</text>
</g>
<!-- TokenInterceptorService&#45;&gt;AppModule -->
<g id="edge10" class="edge">
<title>TokenInterceptorService&#45;&gt;AppModule</title>
<path fill="none" stroke="#000000" d="M131,-122.0109C131,-144.4852 131,-180 131,-180 131,-180 701.223,-180 701.223,-180"/>
<polygon fill="#000000" stroke="#000000" points="701.223,-183.5001 711.223,-180 701.223,-176.5001 701.223,-183.5001"/>
</g>
</g>
</svg>
